<svg xmlns="http://www.w3.org/2000/svg" version="1.1" xmlns:xlink="http://www.w3.org/1999/xlink" width="1000" height="1000"><g clip-path="url(#SvgjsClipPath1158)"><rect width="1000" height="1000" fill="#ffffff"></rect><g transform="matrix(1.8518518518518519,0,0,1.8518518518518519,100,262.03703703703707)"><svg xmlns="http://www.w3.org/2000/svg" version="1.1" xmlns:xlink="http://www.w3.org/1999/xlink" width="432" height="257"><svg width="432" height="257" viewBox="0 0 432 257" fill="none" xmlns="http://www.w3.org/2000/svg">
<path d="M111.271 201.047L169.889 4.17188H226.969L140.323 253H102.726L111.271 201.047ZM57.2666 4.17188L115.714 201.047L124.601 253H86.6611L0.52832 4.17188H57.2666ZM379.752 187.888C379.752 183.444 379.068 179.457 377.701 175.925C376.448 172.279 374.055 168.975 370.523 166.013C366.992 162.937 362.035 159.917 355.655 156.955C349.275 153.993 341.015 150.917 330.875 147.727C319.596 144.081 308.886 139.979 298.746 135.422C288.72 130.865 279.833 125.567 272.086 119.528C264.452 113.376 258.414 106.255 253.971 98.166C249.641 90.0768 247.477 80.6774 247.477 69.9678C247.477 59.5999 249.755 50.2005 254.312 41.7695C258.87 33.2246 265.25 25.9329 273.453 19.8945C281.656 13.7422 291.34 9.014 302.506 5.70996C313.785 2.40592 326.147 0.753906 339.591 0.753906C357.934 0.753906 373.941 4.05794 387.613 10.666C401.285 17.2741 411.881 26.3317 419.4 37.8389C427.034 49.346 430.851 62.5052 430.851 77.3164H379.923C379.923 70.0247 378.385 63.6445 375.309 58.1758C372.346 52.5931 367.789 48.2067 361.637 45.0166C355.598 41.8265 347.965 40.2314 338.736 40.2314C329.85 40.2314 322.444 41.5986 316.52 44.333C310.595 46.9535 306.152 50.5423 303.189 55.0996C300.227 59.543 298.746 64.556 298.746 70.1387C298.746 74.3542 299.771 78.1709 301.822 81.5889C303.987 85.0068 307.177 88.1969 311.393 91.1592C315.608 94.1214 320.792 96.9128 326.944 99.5332C333.097 102.154 340.217 104.717 348.307 107.224C361.865 111.325 373.771 115.939 384.024 121.066C394.392 126.193 403.051 131.947 410.001 138.327C416.951 144.707 422.192 151.942 425.724 160.031C429.256 168.12 431.021 177.292 431.021 187.546C431.021 198.369 428.914 208.054 424.698 216.599C420.483 225.144 414.387 232.378 406.412 238.303C398.437 244.227 388.924 248.728 377.872 251.804C366.821 254.88 354.459 256.418 340.787 256.418C328.482 256.418 316.349 254.823 304.386 251.633C292.423 248.329 281.542 243.373 271.744 236.765C262.06 230.157 254.312 221.726 248.502 211.472C242.691 201.218 239.786 189.084 239.786 175.07H291.227C291.227 182.818 292.423 189.369 294.815 194.724C297.208 200.078 300.569 204.408 304.898 207.712C309.342 211.016 314.583 213.409 320.621 214.89C326.773 216.371 333.495 217.111 340.787 217.111C349.674 217.111 356.965 215.858 362.662 213.352C368.473 210.845 372.745 207.37 375.479 202.927C378.328 198.483 379.752 193.47 379.752 187.888Z" fill="#191919"></path>
</svg></svg></g></g><defs><clipPath id="SvgjsClipPath1158"><rect width="1000" height="1000" x="0" y="0" rx="0" ry="0"></rect></clipPath></defs></svg>